# xmcd
# Copyright (C) 1995-1998 Ti Kan
#
# Track frame offsets:
#       150
#       19932
#       37442
#       52246
#       70553
#       85578
#       106592
#       126965
#       143261
#       164216
#       185215
#       200231
#       214816
#       232271
#       252430
#
# Disc length: 3607 seconds
#
# Revision: 0
# Processed by: cddbd v1.5PL3 Copyright (c) Steve Scherf et al.
# Submitted via: CD-Transfer v1.0
#
DISCID=ea0e150f
DTITLE=The Ventilators - Pearls
DYEAR=2004
DGENRE=
TTITLE0=Moonlight
TTITLE1=Hot Spot
TTITLE2=Jamaican Farewell
TTITLE3=Coming Back To You
TTITLE4=Keep Me Hangin' On
TTITLE5=Blame It On Me
TTITLE6=Sunny
TTITLE7=Forty Shades Of Blue
TTITLE8=Bring Me Your Cup
TTITLE9=Longing For Love
TTITLE10=Di Black Petty Booshwah
TTITLE11=Rude Raver
TTITLE12=Fields Of Pain
TTITLE13=Miles From Home
TTITLE14=Russian Ska
EXTD=
EXTT0=
EXTT1=
EXTT2=
EXTT3=
EXTT4=
EXTT5=
EXTT6=
EXTT7=
EXTT8=
EXTT9=
EXTT10=
EXTT11=
EXTT12=
EXTT13=
EXTT14=
PLAYORDER=
